<svg width="177" height="28" viewBox="0 0 177 28" fill="none" xmlns="http://www.w3.org/2000/svg">
<path d="M55.5784 16.7273C55.5784 18.3134 55.2778 19.6629 54.6764 20.7756C54.0799 21.8883 53.2655 22.7382 52.2333 23.3253C51.2058 23.9077 50.0505 24.1989 48.7674 24.1989C47.4747 24.1989 46.3147 23.9053 45.2872 23.3182C44.2598 22.7311 43.4478 21.8812 42.8512 20.7685C42.2546 19.6558 41.9563 18.3087 41.9563 16.7273C41.9563 15.1411 42.2546 13.7917 42.8512 12.679C43.4478 11.5663 44.2598 10.7187 45.2872 10.1364C46.3147 9.54924 47.4747 9.25568 48.7674 9.25568C50.0505 9.25568 51.2058 9.54924 52.2333 10.1364C53.2655 10.7187 54.0799 11.5663 54.6764 12.679C55.2778 13.7917 55.5784 15.1411 55.5784 16.7273ZM52.4605 16.7273C52.4605 15.6998 52.3067 14.8333 51.9989 14.1278C51.6959 13.4223 51.2674 12.8873 50.7134 12.5227C50.1594 12.1581 49.5107 11.9759 48.7674 11.9759C48.024 11.9759 47.3753 12.1581 46.8213 12.5227C46.2674 12.8873 45.8365 13.4223 45.5287 14.1278C45.2257 14.8333 45.0742 15.6998 45.0742 16.7273C45.0742 17.7547 45.2257 18.6212 45.5287 19.3267C45.8365 20.0322 46.2674 20.5672 46.8213 20.9318C47.3753 21.2964 48.024 21.4787 48.7674 21.4787C49.5107 21.4787 50.1594 21.2964 50.7134 20.9318C51.2674 20.5672 51.6959 20.0322 51.9989 19.3267C52.3067 18.6212 52.4605 17.7547 52.4605 16.7273ZM56.6384 11.9901V9.45455H68.5845V11.9901H64.1313V24H61.0916V11.9901H56.6384ZM69.9978 11.9901V9.45455H81.9438V11.9901H77.4907V24H74.451V11.9901H69.9978Z" fill="#4F46E5"/>
<path d="M96.4307 13.6378C96.3739 13.0649 96.13 12.6198 95.6992 12.3026C95.2683 11.9853 94.6835 11.8267 93.9449 11.8267C93.443 11.8267 93.0193 11.8977 92.6736 12.0398C92.328 12.1771 92.0628 12.3688 91.8782 12.6151C91.6982 12.8613 91.6083 13.1406 91.6083 13.4531C91.5988 13.7135 91.6532 13.9408 91.7716 14.1349C91.8947 14.3291 92.0628 14.4972 92.2759 14.6392C92.4889 14.7765 92.7352 14.8973 93.0145 15.0014C93.2939 15.1009 93.5922 15.1861 93.9094 15.2571L95.2162 15.5696C95.8507 15.7116 96.4331 15.901 96.9634 16.1378C97.4937 16.3745 97.953 16.6657 98.3412 17.0114C98.7295 17.357 99.0301 17.7642 99.2432 18.233C99.461 18.7017 99.5723 19.2391 99.577 19.8452C99.5723 20.7353 99.345 21.5071 98.8952 22.1605C98.4501 22.8092 97.8062 23.3134 96.9634 23.6733C96.1253 24.0284 95.1144 24.206 93.9307 24.206C92.7565 24.206 91.7337 24.026 90.8625 23.6662C89.996 23.3063 89.319 22.7737 88.8313 22.0682C88.3483 21.358 88.095 20.4796 88.0713 19.4332H91.0472C91.0803 19.9209 91.22 20.3281 91.4662 20.6548C91.7172 20.9768 92.051 21.2206 92.4676 21.3864C92.889 21.5473 93.3649 21.6278 93.8952 21.6278C94.416 21.6278 94.8682 21.5521 95.2517 21.4006C95.64 21.2491 95.9407 21.0384 96.1537 20.7685C96.3668 20.4986 96.4733 20.1884 96.4733 19.8381C96.4733 19.5114 96.3763 19.2367 96.1821 19.0142C95.9927 18.7917 95.7134 18.6023 95.3441 18.446C94.9795 18.2898 94.532 18.1477 94.0017 18.0199L92.4179 17.6222C91.1916 17.3239 90.2233 16.8575 89.5131 16.223C88.8029 15.5885 88.4501 14.7339 88.4549 13.6591C88.4501 12.7784 88.6845 12.009 89.158 11.3509C89.6362 10.6927 90.292 10.179 91.1253 9.80966C91.9586 9.44034 92.9056 9.25568 93.9662 9.25568C95.0458 9.25568 95.988 9.44034 96.7929 9.80966C97.6026 10.179 98.2323 10.6927 98.6821 11.3509C99.1319 12.009 99.3639 12.7713 99.3782 13.6378H96.4307ZM114.479 14.5469H111.369C111.312 14.1444 111.196 13.7869 111.021 13.4744C110.845 13.1572 110.62 12.8873 110.346 12.6648C110.071 12.4422 109.754 12.2718 109.394 12.1534C109.039 12.035 108.653 11.9759 108.236 11.9759C107.484 11.9759 106.828 12.1629 106.269 12.5369C105.71 12.9062 105.277 13.446 104.969 14.1562C104.662 14.8617 104.508 15.7187 104.508 16.7273C104.508 17.7642 104.662 18.6354 104.969 19.3409C105.282 20.0464 105.718 20.5791 106.276 20.9389C106.835 21.2988 107.481 21.4787 108.215 21.4787C108.627 21.4787 109.008 21.4242 109.359 21.3153C109.714 21.2064 110.029 21.0478 110.303 20.8395C110.578 20.6264 110.805 20.3684 110.985 20.0653C111.17 19.7623 111.298 19.4167 111.369 19.0284L114.479 19.0426C114.399 19.7102 114.198 20.3542 113.876 20.9744C113.558 21.59 113.13 22.1416 112.59 22.6293C112.055 23.1122 111.416 23.4957 110.673 23.7798C109.934 24.0592 109.098 24.1989 108.165 24.1989C106.868 24.1989 105.708 23.9053 104.685 23.3182C103.667 22.7311 102.862 21.8812 102.271 20.7685C101.683 19.6558 101.39 18.3087 101.39 16.7273C101.39 15.1411 101.688 13.7917 102.285 12.679C102.881 11.5663 103.691 10.7187 104.714 10.1364C105.736 9.54924 106.887 9.25568 108.165 9.25568C109.008 9.25568 109.789 9.37405 110.509 9.6108C111.234 9.84754 111.875 10.1932 112.434 10.6477C112.993 11.0975 113.447 11.6491 113.798 12.3026C114.153 12.956 114.38 13.7041 114.479 14.5469ZM116.685 24V9.45455H119.76V15.456H126.003V9.45455H129.071V24H126.003V17.9915H119.76V24H116.685ZM144.973 16.7273C144.973 18.3134 144.672 19.6629 144.071 20.7756C143.474 21.8883 142.66 22.7382 141.628 23.3253C140.6 23.9077 139.445 24.1989 138.162 24.1989C136.869 24.1989 135.709 23.9053 134.682 23.3182C133.654 22.7311 132.842 21.8812 132.246 20.7685C131.649 19.6558 131.351 18.3087 131.351 16.7273C131.351 15.1411 131.649 13.7917 132.246 12.679C132.842 11.5663 133.654 10.7187 134.682 10.1364C135.709 9.54924 136.869 9.25568 138.162 9.25568C139.445 9.25568 140.6 9.54924 141.628 10.1364C142.66 10.7187 143.474 11.5663 144.071 12.679C144.672 13.7917 144.973 15.1411 144.973 16.7273ZM141.855 16.7273C141.855 15.6998 141.701 14.8333 141.393 14.1278C141.09 13.4223 140.662 12.8873 140.108 12.5227C139.554 12.1581 138.905 11.9759 138.162 11.9759C137.419 11.9759 136.77 12.1581 136.216 12.5227C135.662 12.8873 135.231 13.4223 134.923 14.1278C134.62 14.8333 134.469 15.6998 134.469 16.7273C134.469 17.7547 134.62 18.6212 134.923 19.3267C135.231 20.0322 135.662 20.5672 136.216 20.9318C136.77 21.2964 137.419 21.4787 138.162 21.4787C138.905 21.4787 139.554 21.2964 140.108 20.9318C140.662 20.5672 141.09 20.0322 141.393 19.3267C141.701 18.6212 141.855 17.7547 141.855 16.7273ZM160.617 16.7273C160.617 18.3134 160.317 19.6629 159.716 20.7756C159.119 21.8883 158.305 22.7382 157.272 23.3253C156.245 23.9077 155.09 24.1989 153.806 24.1989C152.514 24.1989 151.354 23.9053 150.326 23.3182C149.299 22.7311 148.487 21.8812 147.89 20.7685C147.294 19.6558 146.995 18.3087 146.995 16.7273C146.995 15.1411 147.294 13.7917 147.89 12.679C148.487 11.5663 149.299 10.7187 150.326 10.1364C151.354 9.54924 152.514 9.25568 153.806 9.25568C155.09 9.25568 156.245 9.54924 157.272 10.1364C158.305 10.7187 159.119 11.5663 159.716 12.679C160.317 13.7917 160.617 15.1411 160.617 16.7273ZM157.5 16.7273C157.5 15.6998 157.346 14.8333 157.038 14.1278C156.735 13.4223 156.306 12.8873 155.752 12.5227C155.198 12.1581 154.55 11.9759 153.806 11.9759C153.063 11.9759 152.414 12.1581 151.86 12.5227C151.306 12.8873 150.876 13.4223 150.568 14.1278C150.265 14.8333 150.113 15.6998 150.113 16.7273C150.113 17.7547 150.265 18.6212 150.568 19.3267C150.876 20.0322 151.306 20.5672 151.86 20.9318C152.414 21.2964 153.063 21.4787 153.806 21.4787C154.55 21.4787 155.198 21.2964 155.752 20.9318C156.306 20.5672 156.735 20.0322 157.038 19.3267C157.346 18.6212 157.5 17.7547 157.5 16.7273ZM162.896 24V9.45455H165.971V21.4645H172.207V24H162.896Z" fill="#161717"/>
<path d="M23.966 10.0355C22.2431 9.50739 21.1386 9.36795 18.9948 9.31534H17.491H16.0118C13.8883 9.32766 12.797 9.47558 11.062 10.0355C13.9932 11.9394 15.3931 13.1257 17.491 15.4371C19.8363 12.881 21.2473 11.6832 23.966 10.0355Z" fill="#4F46E5"/>
<path d="M21.885 4.16622C21.5188 6.60685 20.1101 8.20931 17.4227 8.33245C15.4103 8.33245 13.1354 6.54692 12.9604 4.16622C12.733 1.07284 14.9582 0 17.4227 0C19.8872 0 22.31 1.33401 21.885 4.16622Z" fill="#4F46E5"/>
<path d="M33.9796 8.36107C29.0264 7.15291 25.6744 8.71922 19.4858 14.3171C25.1751 10.3664 28.3727 8.98453 33.5433 9.74064L33.9796 8.36107Z" fill="#4F46E5"/>
<path d="M33.8349 11.883L34.3099 10.4874C29.8101 9.00972 24.5424 10.9041 17.7603 15.8281L17.9097 15.9346C24.9152 12.364 28.5422 11.1224 33.8349 11.883Z" fill="#4F46E5"/>
<path fill-rule="evenodd" clip-rule="evenodd" d="M17.6362 16.4145V26.7299C22.5957 25.048 24.8686 25.4413 28.2181 28L31.2129 21.0621L32.0034 19.2343L32.0021 19.2339L34.948 12.4094C28.9599 10.9095 24.9579 12.6257 17.6362 16.4145ZM32.0021 19.2339L29.7733 18.5591C29.4561 18.463 29.1041 18.5963 28.9871 18.8567C28.943 18.9548 28.9386 19.057 28.9672 19.1514L28.9262 19.139C28.609 19.043 28.257 19.1762 28.14 19.4366C28.023 19.6971 28.1853 19.986 28.5025 20.0821L28.5565 20.0984C28.4801 20.1523 28.4187 20.2225 28.3814 20.3057C28.2644 20.5661 28.4267 20.8551 28.7439 20.9511L28.9406 21.0107C28.8677 21.0638 28.8092 21.132 28.7731 21.2124C28.6561 21.4728 28.8184 21.7618 29.1357 21.8578L30.6682 22.3219L31.2129 21.0621L32.0021 19.2339Z" fill="#4F46E5"/>
<rect width="3.92703" height="0.617305" rx="0.308653" transform="matrix(0.957088 0.289799 -0.409799 0.912176 29.3452 18.6452)" fill="#4F46E5"/>
<rect width="3.92703" height="0.617306" rx="0.308653" transform="matrix(0.957088 0.289797 -0.409801 0.912175 28.7393 20.0942)" fill="#4F46E5"/>
<rect width="2.92848" height="0.617305" rx="0.308653" transform="matrix(0.957088 0.289799 -0.409799 0.912176 29.1304 21.0009)" fill="#4F46E5"/>
<rect width="4.79874" height="0.617305" rx="0.308653" transform="matrix(0.957088 0.289799 -0.409799 0.912176 28.4976 19.2252)" fill="#4F46E5"/>
<path d="M0.968674 8.36107C5.92189 7.15291 9.27389 8.71922 15.4624 14.3171C9.77315 10.3664 6.5755 8.98453 1.40494 9.74064L0.968674 8.36107Z" fill="#4F46E5"/>
<path d="M1.11332 11.883L0.638346 10.4874C5.13817 9.00972 10.4058 10.9041 17.188 15.8281L17.0385 15.9346C10.033 12.364 6.40607 11.1224 1.11332 11.883Z" fill="#4F46E5"/>
<path fill-rule="evenodd" clip-rule="evenodd" d="M17.312 16.4145V26.7299C12.3525 25.048 10.0797 25.4413 6.73011 28L4.24212 22.2362L2.94397 19.2343L2.94602 19.2337L0.00022316 12.4094C5.98837 10.9095 9.99038 12.6257 17.312 16.4145ZM2.94602 19.2337L5.174 18.5591C5.49121 18.463 5.84321 18.5963 5.96021 18.8567C6.0043 18.9548 6.00872 19.057 5.98014 19.1514L6.02114 19.139C6.33836 19.043 6.69036 19.1762 6.80735 19.4366C6.92435 19.6971 6.76204 19.986 6.44483 20.0821L6.39079 20.0984C6.46727 20.1523 6.52858 20.2225 6.56594 20.3057C6.68294 20.5661 6.52063 20.8551 6.20341 20.9511L6.00676 21.0107C6.07965 21.0638 6.13811 21.132 6.1742 21.2124C6.2912 21.4728 6.12889 21.7618 5.81167 21.8578L4.27914 22.3219L4.24212 22.2362L2.94602 19.2337Z" fill="#4F46E5"/>
<rect width="3.92703" height="0.617306" rx="0.308653" transform="matrix(-0.957089 0.289793 0.409807 0.912172 5.60303 18.6452)" fill="#4F46E5"/>
<rect width="3.92703" height="0.617305" rx="0.308653" transform="matrix(-0.957088 0.289799 0.409799 0.912176 6.20801 20.0942)" fill="#4F46E5"/>
<rect width="2.92848" height="0.617305" rx="0.308653" transform="matrix(-0.957088 0.289799 0.409799 0.912176 5.81592 21.0009)" fill="#4F46E5"/>
<rect width="4.79874" height="0.617306" rx="0.308653" transform="matrix(-0.957088 0.289797 0.409801 0.912175 6.44873 19.2252)" fill="#4F46E5"/>
</svg>
