<svg width="406" height="188" viewBox="0 0 406 188" fill="none" xmlns="http://www.w3.org/2000/svg">
<path d="M75.5843 15.7975C56.043 5.38568 17.0526 30.6985 0 44.6564V187.253H405.114V1.08513C402.195 -1.17831 393.407 -1.40465 381.609 15.7975C366.861 37.3002 338.286 170.277 301.876 183.858C265.467 197.439 247.493 62.7639 222.144 44.6564C196.796 26.5489 176.978 67.8566 149.325 72.3835C121.672 76.9104 100.011 28.8123 75.5843 15.7975Z" fill="url(#paint0_linear_1123_226)"/>
<path d="M0 44.6564C17.0526 30.6985 56.043 5.38568 75.5843 15.7975C100.011 28.8123 121.672 76.9104 149.325 72.3835C176.978 67.8566 196.796 26.5489 222.144 44.6564C247.493 62.7639 265.467 197.439 301.876 183.858C338.286 170.277 366.861 37.3002 381.609 15.7975C393.407 -1.40465 402.195 -1.17831 405.114 1.08513" stroke="#4F46E5" stroke-width="2"/>
<defs>
<linearGradient id="paint0_linear_1123_226" x1="202.557" y1="0" x2="202.557" y2="187.253" gradientUnits="userSpaceOnUse">
<stop stop-color="#4F46E5" stop-opacity="0.55"/>
<stop offset="1" stop-color="#4F46E5" stop-opacity="0"/>
</linearGradient>
</defs>
</svg>
